<svg width="40" height="32" viewBox="0 0 40 32" fill="none" xmlns="http://www.w3.org/2000/svg">
  <!-- BG & frame -->
  <path opacity="0.15" fill-rule="evenodd" clip-rule="evenodd" d="M3 1C1.89543 1 1 1.89543 1 3V28C1 29.1046 1.89543 30 3 30H37C38.1046 30 39 29.1046 39 28V3C39 1.89543 38.1046 1 37 1H3ZM36 9H4V28H36V9Z" fill="url(#a0)"/>
  <path d="M37.6172 0.375H2.38281C1.06903 0.375 0 1.44403 0 2.75781V29.2422C0 30.556 1.06903 31.625 2.38281 31.625H37.6172C38.931 31.625 40 30.556 40 29.2422V2.75781C40 1.44403 38.931 0.375 37.6172 0.375ZM38.4375 29.2422C38.4375 29.6945 38.0695 30.0625 37.6172 30.0625H2.38281C1.93054 30.0625 1.5625 29.6945 1.5625 29.2422V2.75781C1.5625 2.30554 1.93054 1.9375 2.38281 1.9375H37.6172C38.0695 1.9375 38.4375 2.30554 38.4375 2.75781V29.2422Z" fill="url(#a1)"/>
  <path d="M14.922 5.792H35.078c.431 0 .781-.35.781-.781 0-.431-.35-.781-.781-.781H14.922c-.432 0-.781.35-.781.781 0 .431.349.781.781.781Z" fill="url(#a2)"/>
  <!-- trois points -->
  <path d="M4.7 5.79a.78.78 0 1 0 0-1.56.78.78 0 0 0 0 1.56Z" fill="url(#a3)"/>
  <path d="M7.84 5.79a.78.78 0 1 0 0-1.56.78.78 0 0 0 0 1.56Z" fill="url(#a4)"/>
  <path d="M10.96 5.79a.78.78 0 1 0 0-1.56.78.78 0 0 0 0 1.56Z" fill="url(#a5)"/>

  <!-- cerveau stylisé dans l'écran -->
  <g clip-path="url(#screenClip)">
    <!--
      Écran interne : x=4, y=9, w=32, h=19
      SVG cerveau d’origine: viewBox 0 0 128 128
      scale = min(32/128, 19/128) = 0.1484375  -> 128 * 0.1484375 = 19
      centré horizontalement: x = 4 + (32 - 19)/2 = 10.5 ; y = 9
    -->
    <g transform="translate(10.5, 9) scale(0.1484375)">
      <path d="M 39.500 1.393 C 35.425 3.178, 30.274 8.640, 28.987 12.540 C 28.075 15.303, 27.358 15.823, 23.801 16.300 C 19.093 16.931, 15.910 19.030, 11.621 24.330 C 7.946 28.870, 6.813 37.803, 9.301 42.614 C 10.797 45.509, 10.763 45.596, 6.794 48.928 C 1.919 53.021, -0 57.278, -0 64 C -0 70.722, 1.919 74.979, 6.794 79.072 C 10.763 82.404, 10.797 82.491, 9.301 85.386 C 6.813 90.197, 7.946 99.130, 11.621 103.670 C 15.910 108.970, 19.093 111.069, 23.801 111.700 C 27.358 112.177, 28.075 112.697, 28.987 115.460 C 30.311 119.473, 35.488 124.870, 39.718 126.648 C 44.002 128.448, 51.202 128.360, 55.768 126.452 C 64.447 122.826, 67.946 116.464, 67.978 104.250 L 68 96 73.202 96 C 77.686 96, 78.855 96.436, 81.662 99.157 C 84.592 101.997, 84.861 102.732, 84.347 106.488 C 83.277 114.295, 88.504 120, 96.728 120 C 108.807 120, 112.408 102.743, 101.417 97.527 C 98.949 96.356, 96.538 95.978, 94.062 96.374 C 90.692 96.913, 90.007 96.583, 85.982 92.481 C 81.627 88.044, 81.516 88, 74.792 88 L 68 88 68 82 L 68 76 77.297 76 L 86.594 76 90.500 80 C 94.053 83.639, 94.869 84, 99.534 84 C 104.026 84, 104.834 84.321, 106.046 86.585 C 109.779 93.561, 121.612 93.675, 126.439 86.783 C 129.919 81.815, 127.502 72.345, 122.033 69.517 C 116.671 66.744, 112.251 67.514, 107.765 72 C 102.317 77.448, 98.819 77.448, 93.500 72 L 89.594 68 78.797 68 L 68 68 68 64 L 68 60 78.797 60 L 89.594 60 93.500 56 C 98.726 50.648, 102.620 50.524, 107.237 55.562 C 113.008 61.859, 122.840 61.078, 126.483 54.033 C 128.445 50.239, 128.424 44.050, 126.439 41.217 C 121.612 34.325, 109.779 34.439, 106.046 41.415 C 104.834 43.679, 104.026 44, 99.534 44 C 94.869 44, 94.053 44.361, 90.500 48 L 86.594 52 77.297 52 L 68 52 68 46 L 68 40 74.792 40 C 81.516 40, 81.627 39.956, 85.982 35.519 C 90.007 31.417, 90.692 31.087, 94.062 31.626 C 103.917 33.202, 111.141 22.975, 106.506 14.011 C 104.354 9.850, 101.176 8, 96.182 8 C 88.324 8, 83.100 14.067, 84.346 21.745 C 84.870 24.975, 84.536 25.883, 81.778 28.729 C 78.982 31.614, 77.982 32, 73.304 32 L 68 32 68 23.968 C 68 12.140, 64.916 6.070, 56.790 1.903 C 52.449 -0.323, 43.987 -0.573, 39.500 1.393 M 41.763 9.565 C 38.612 11.275, 36 15.752, 36 19.442 C 36 21.397, 36.863 22.390, 39.737 23.744 C 41.792 24.711, 43.629 26.312, 43.819 27.300 C 44.273 29.658, 42.260 32, 39.779 32 C 36.496 32, 30.881 28.833, 29.746 26.342 C 26.867 20.023, 16 27.468, 16 35.759 C 16 39.683, 17.817 41.829, 22.501 43.439 C 30.690 46.254, 29.773 51.118, 20.870 52.094 C 14.150 52.831, 11.449 54.230, 9.510 57.980 C 7.585 61.703, 7.585 66.297, 9.510 70.020 C 11.449 73.770, 14.150 75.169, 20.870 75.906 C 29.465 76.848, 30.805 82.313, 22.918 84.258 C 14.294 86.385, 13.508 96.741, 21.567 102.054 C 25.529 104.665, 28.440 104.524, 29.746 101.658 C 30.881 99.167, 36.496 96, 39.779 96 C 42.260 96, 44.273 98.342, 43.819 100.700 C 43.629 101.688, 41.792 103.289, 39.737 104.256 C 35.514 106.245, 34.896 108.965, 37.517 114.033 C 41.004 120.776, 50.650 121.810, 56.407 116.058 L 59.500 112.967 59.821 98.051 C 60.165 82.047, 59.600 79.440, 55.564 78.427 C 52.184 77.578, 49.179 79.530, 48.230 83.191 C 46.533 89.740, 40.771 89.451, 40.198 82.787 C 39.615 76.012, 47.807 69.380, 55.666 70.266 L 60 70.754 60 64 L 60 57.246 55.666 57.734 C 47.807 58.620, 39.615 51.988, 40.198 45.213 C 40.771 38.549, 46.533 38.260, 48.230 44.809 C 49.179 48.470, 52.184 50.422, 55.564 49.573 C 59.604 48.559, 60.165 45.957, 59.821 29.854 L 59.500 14.841 55.765 11.421 C 51.564 7.574, 46.636 6.921, 41.763 9.565 M 93.040 17.452 C 91.589 19.200, 92.483 22.588, 94.611 23.404 C 96.757 24.228, 100 22.279, 100 20.165 C 100 16.403, 95.399 14.610, 93.040 17.452 M 113.039 45.928 C 111.732 48.370, 112.620 50.745, 115.140 51.545 C 118.876 52.730, 121.603 48.003, 118.800 45.200 C 117 43.400, 114.202 43.753, 113.039 45.928 M 113.621 77.521 C 111.658 79.485, 111.620 80.097, 113.316 82.418 C 115.922 85.981, 121.741 81.987, 119.388 78.250 C 117.886 75.865, 115.570 75.572, 113.621 77.521 M 93.521 105.621 C 91.572 107.570, 91.865 109.886, 94.250 111.388 C 97.987 113.741, 101.981 107.922, 98.418 105.316 C 96.097 103.620, 95.485 103.658, 93.521 105.621"
            fill="url(#a6)" stroke="none" fill-rule="evenodd"/>
    </g>
  </g>

  <defs>
    <clipPath id="screenClip">
      <rect x="4" y="9" width="32" height="19" rx="0.5" ry="0.5"/>
    </clipPath>

    <linearGradient id="a0" x1="3.15" y1="1" x2="26.69" y2="35.05" gradientUnits="userSpaceOnUse">
      <stop offset="0.259336" stop-color="#FFDB6E"/><stop offset="1" stop-color="#FFBC5E"/>
    </linearGradient>
    <linearGradient id="a1" x1="2.27" y1="0.375" x2="27.83" y2="36.511" gradientUnits="userSpaceOnUse">
      <stop offset="0.259336" stop-color="#FFDB6E"/><stop offset="1" stop-color="#FFBC5E"/>
    </linearGradient>
    <linearGradient id="a2" x1="15.37" y1="4.229" x2="15.55" y2="6.929" gradientUnits="userSpaceOnUse">
      <stop offset="0.259336" stop-color="#FFDB6E"/><stop offset="1" stop-color="#FFBC5E"/>
    </linearGradient>
    <linearGradient id="a3" x1="4.02" y1="4.229" x2="5.37" y2="5.719" gradientUnits="userSpaceOnUse">
      <stop offset="0.259336" stop-color="#FFDB6E"/><stop offset="1" stop-color="#FFBC5E"/>
    </linearGradient>
    <linearGradient id="a4" x1="7.15" y1="4.229" x2="8.49" y2="5.719" gradientUnits="userSpaceOnUse">
      <stop offset="0.259336" stop-color="#FFDB6E"/><stop offset="1" stop-color="#FFBC5E"/>
    </linearGradient>
    <linearGradient id="a5" x1="10.27" y1="4.229" x2="11.62" y2="5.719" gradientUnits="userSpaceOnUse">
      <stop offset="0.259336" stop-color="#FFDB6E"/><stop offset="1" stop-color="#FFBC5E"/>
    </linearGradient>
    <!-- dégradés pour le visuel interne -->
    <linearGradient id="a6" x1="10" y1="59" x2="30" y2="126" gradientUnits="userSpaceOnUse">
      <stop offset="0.259336" stop-color="#FFDB6E"/><stop offset="1" stop-color="#FFBC5E"/>
    </linearGradient>
    <linearGradient id="a7" x1="18" y1="8" x2="28" y2="18" gradientUnits="userSpaceOnUse">
      <stop offset="0.259336" stop-color="#FFDB6E"/><stop offset="1" stop-color="#FFBC5E"/>
    </linearGradient>
  </defs>
</svg>
