<svg width="40" height="32" viewBox="0 0 40 32" fill="none" xmlns="http://www.w3.org/2000/svg">
  <!-- BACKGROUND & FRAME (même style que tes icônes) -->
  <path opacity="0.15" fill-rule="evenodd" clip-rule="evenodd" d="M3 1C1.89543 1 1 1.89543 1 3V28C1 29.1046 1.89543 30 3 30H37C38.1046 30 39 29.1046 39 28V3C39 1.89543 38.1046 1 37 1H3ZM36 9H4V28H36V9Z" fill="url(#paint0_linear)"/>
  <path d="M37.6172 0.375H2.38281C1.06903 0.375 0 1.44403 0 2.75781V29.2422C0 30.556 1.06903 31.625 2.38281 31.625H37.6172C38.931 31.625 40 30.556 40 29.2422V2.75781C40 1.44403 38.931 0.375 37.6172 0.375ZM38.4375 29.2422C38.4375 29.6945 38.0695 30.0625 37.6172 30.0625H2.38281C1.93054 30.0625 1.5625 29.6945 1.5625 29.2422V2.75781C1.5625 2.30554 1.93054 1.9375 2.38281 1.9375H37.6172C38.0695 1.9375 38.4375 2.30554 38.4375 2.75781V29.2422Z" fill="url(#paint1_linear)"/>
  <path d="M14.9219 5.79156H35.0781C35.5096 5.79156 35.8594 5.44183 35.8594 5.01031C35.8594 4.5791 35.5096 4.22906 35.0781 4.22906H14.9219C14.4904 4.22906 14.1406 4.5791 14.1406 5.01031C14.1406 5.44183 14.4904 5.79156 14.9219 5.79156Z" fill="url(#paint2_linear)"/>
  <!-- trois points -->
  <path d="M3.992 5.309c.02.047.044.092.072.134.028.043.061.083.097.118.145.146.346.229.552.229.052 0 .103-.005.154-.015.05-.01.099-.025.146-.044.047-.02.092-.044.134-.072.043-.029.083-.062.119-.097.036-.036.068-.076.097-.119.028-.042.052-.087.072-.134.02-.047.035-.096.045-.145.01-.051.015-.103.015-.154s-.005-.095-.015-.145a.73.73 0 0 0-.117-.253.73.73 0 0 0-.216-.216.73.73 0 0 0-.253-.117 1.02 1.02 0 0 0-.311 0 .73.73 0 0 0-.253.117.73.73 0 0 0-.216.216.73.73 0 0 0-.117.253c-.01.05-.015.102-.015.153s.005.103.015.154c.01.049.025.098.045.145Z" fill="url(#paint3_linear)"/>
  <path d="M7.117 5.309c.02.047.044.092.072.134.028.043.061.083.097.118.145.146.346.229.552.229.052 0 .103-.005.154-.015.05-.01.099-.025.146-.044.047-.02.092-.044.134-.072.043-.029.083-.062.119-.097.036-.036.068-.076.097-.119.028-.042.052-.087.072-.134.02-.047.035-.096.045-.145.01-.051.015-.103.015-.154s-.005-.095-.015-.145a.73.73 0 0 0-.117-.253.73.73 0 0 0-.216-.216.73.73 0 0 0-.253-.117 1.02 1.02 0 0 0-.311 0 .73.73 0 0 0-.253.117.73.73 0 0 0-.216.216.73.73 0 0 0-.117.253c-.01.05-.015.102-.015.153s.005.103.015.154c.01.049.025.098.045.145Z" fill="url(#paint4_linear)"/>
  <path d="M10.242 5.309c.02.047.044.092.072.134.028.043.061.083.097.118.145.146.346.229.552.229.052 0 .103-.005.154-.015.05-.01.099-.025.146-.044.047-.02.092-.044.134-.072.043-.029.083-.062.119-.097.036-.036.068-.076.097-.119.028-.042.052-.087.072-.134.02-.047.035-.096.045-.145.01-.051.015-.103.015-.154s-.005-.095-.015-.145a.73.73 0 0 0-.117-.253.73.73 0 0 0-.216-.216.73.73 0 0 0-.253-.117 1.02 1.02 0 0 0-.311 0 .73.73 0 0 0-.253.117.73.73 0 0 0-.216.216.73.73 0 0 0-.117.253c-.01.05-.015.102-.015.153s.005.103.015.154c.01.049.025.098.045.145Z" fill="url(#paint5_linear)"/>
  <!-- PICTO CENTRAL : cube + mini engrenage -->
  <!-- cube -->
  <path d="M20 11L27 15V21L20 25L13 21V15L20 11Z" stroke="url(#paint6_linear)" stroke-width="1.3" fill="none"/>
  <path d="M20 11L27 15L20 19L13 15L20 11Z" fill="url(#paint7_linear)" opacity="0.22"/>
  <path d="M20 19L27 15V21L20 25V19Z" fill="url(#paint8_linear)" opacity="0.22"/>
  <path d="M20 19L13 15V21L20 25V19Z" fill="url(#paint9_linear)" opacity="0.18"/>
  <!-- DEFS -->
  <defs>
    <linearGradient id="paint0_linear" x1="3.15333" y1="1" x2="26.6886" y2="35.0542" gradientUnits="userSpaceOnUse">
      <stop offset="0.259336" stop-color="#FFDB6E"/><stop offset="1" stop-color="#FFBC5E"/>
    </linearGradient>
    <linearGradient id="paint1_linear" x1="2.26667" y1="0.375001" x2="27.8327" y2="36.511" gradientUnits="userSpaceOnUse">
      <stop offset="0.259336" stop-color="#FFDB6E"/><stop offset="1" stop-color="#FFBC5E"/>
    </linearGradient>
    <linearGradient id="paint2_linear" x1="15.3714" y1="4.22906" x2="15.5472" y2="6.9288" gradientUnits="userSpaceOnUse">
      <stop offset="0.259336" stop-color="#FFDB6E"/><stop offset="1" stop-color="#FFBC5E"/>
    </linearGradient>
    <linearGradient id="paint3_linear" x1="4.02043" y1="4.22931" x2="5.36917" y2="5.71887" gradientUnits="userSpaceOnUse">
      <stop offset="0.259336" stop-color="#FFDB6E"/><stop offset="1" stop-color="#FFBC5E"/>
    </linearGradient>
    <linearGradient id="paint4_linear" x1="7.14543" y1="4.22931" x2="8.49417" y2="5.71887" gradientUnits="userSpaceOnUse">
      <stop offset="0.259336" stop-color="#FFDB6E"/><stop offset="1" stop-color="#FFBC5E"/>
    </linearGradient>
    <linearGradient id="paint5_linear" x1="10.2704" y1="4.22931" x2="11.6189" y2="5.71884" gradientUnits="userSpaceOnUse">
      <stop offset="0.259336" stop-color="#FFDB6E"/><stop offset="1" stop-color="#FFBC5E"/>
    </linearGradient>
    <linearGradient id="paint6_linear" x1="17" y1="10" x2="28" y2="24" gradientUnits="userSpaceOnUse">
      <stop offset="0.259336" stop-color="#FFDB6E"/><stop offset="1" stop-color="#FFBC5E"/>
    </linearGradient>
    <linearGradient id="paint7_linear" x1="18" y1="11" x2="23" y2="20" gradientUnits="userSpaceOnUse">
      <stop offset="0.259336" stop-color="#FFDB6E"/><stop offset="1" stop-color="#FFBC5E"/>
    </linearGradient>
    <linearGradient id="paint8_linear" x1="24" y1="14" x2="21" y2="24" gradientUnits="userSpaceOnUse">
      <stop offset="0.259336" stop-color="#FFDB6E"/><stop offset="1" stop-color="#FFBC5E"/>
    </linearGradient>
    <linearGradient id="paint9_linear" x1="16" y1="14" x2="19" y2="24" gradientUnits="userSpaceOnUse">
      <stop offset="0.259336" stop-color="#FFDB6E"/><stop offset="1" stop-color="#FFBC5E"/>
    </linearGradient>
  </defs>
</svg>
